<svg width="1200" height="500" viewBox="0 0 1200 500" xmlns="http://www.w3.org/2000/svg">

  <rect width="1200" height="500" fill="#ffffff"/>

  <text x="600" y="40" text-anchor="middle" font-size="28" fill="#0f172a" font-family="Arial, Helvetica, sans-serif">
    Dataset Structure
  </text>

  <!-- Root -->
  <rect x="470" y="80" width="260" height="60" rx="14" ry="14" fill="#f8fafc" stroke="#0f172a" stroke-width="2"/>
  <text x="600" y="115" text-anchor="middle" font-size="16" fill="#0f172a">HullucinateEB/</text>

  <!-- v1 -->
  <rect x="470" y="180" width="260" height="60" rx="14" ry="14" fill="#ecfeff" stroke="#0284c7" stroke-width="2"/>
  <text x="600" y="215" text-anchor="middle" font-size="16" fill="#075985">v1/</text>

  <!-- Dev, Test, Schema -->
  <rect x="120" y="280" width="180" height="50" rx="12" ry="12" fill="#f0fdf4" stroke="#16a34a" stroke-width="2"/>
  <text x="210" y="310" text-anchor="middle" font-size="14" fill="#166534">dev.jsonl</text>

  <rect x="470" y="280" width="180" height="50" rx="12" ry="12" fill="#fff7ed" stroke="#ea580c" stroke-width="2"/>
  <text x="560" y="310" text-anchor="middle" font-size="14" fill="#9a3412">test.jsonl</text>

  <rect x="820" y="280" width="180" height="50" rx="12" ry="12" fill="#fef2f2" stroke="#dc2626" stroke-width="2"/>
  <text x="910" y="310" text-anchor="middle" font-size="14" fill="#991b1b">schema.json</text>

  <!-- References -->
  <rect x="100" y="380" width="300" height="50" rx="12" ry="12" fill="#f5f3ff" stroke="#7c3aed" stroke-width="2"/>
  <text x="250" y="410" text-anchor="middle" font-size="14" fill="#5b21b6">references/knowledge_snapshot.md</text>

  <rect x="820" y="380" width="260" height="50" rx="12" ry="12" fill="#f8fafc" stroke="#0f172a" stroke-width="2"/>
  <text x="950" y="410" text-anchor="middle" font-size="14" fill="#0f172a">README.md</text>

  <!-- Arrows -->
  <line x1="600" y1="140" x2="600" y2="180" stroke="#94a3b8" stroke-width="2"/>
  <line x1="600" y1="240" x2="210" y2="280" stroke="#94a3b8" stroke-width="2"/>
  <line x1="600" y1="240" x2="560" y2="280" stroke="#94a3b8" stroke-width="2"/>
  <line x1="600" y1="240" x2="910" y2="280" stroke="#94a3b8" stroke-width="2"/>
  <line x1="600" y1="240" x2="250" y2="380" stroke="#94a3b8" stroke-width="2"/>
  <line x1="600" y1="240" x2="950" y2="380" stroke="#94a3b8" stroke-width="2"/>

</svg>
