<svg width="1200" height="500" viewBox="0 0 1200 500" xmlns="http://www.w3.org/2000/svg">

  <rect width="1200" height="500" fill="#ffffff"/>

  <text x="600" y="40" text-anchor="middle" font-size="28" fill="#0f172a" font-family="Arial, Helvetica, sans-serif">
    Evaluation Flow
  </text>

  <!-- Flow Boxes -->
  <rect x="100" y="100" width="200" height="60" rx="14" ry="14" fill="#f8fafc" stroke="#0f172a" stroke-width="2"/>
  <text x="200" y="135" text-anchor="middle" font-size="14" fill="#0f172a">Model Output</text>

  <rect x="350" y="100" width="200" height="60" rx="14" ry="14" fill="#ecfeff" stroke="#0284c7" stroke-width="2"/>
  <text x="450" y="135" text-anchor="middle" font-size="14" fill="#075985">Claim Extraction</text>

  <rect x="600" y="100" width="200" height="60" rx="14" ry="14" fill="#fff7ed" stroke="#ea580c" stroke-width="2"/>
  <text x="700" y="135" text-anchor="middle" font-size="14" fill="#9a3412">Truth Mode Lookup</text>

  <rect x="850" y="100" width="200" height="60" rx="14" ry="14" fill="#f0fdf4" stroke="#16a34a" stroke-width="2"/>
  <text x="950" y="135" text-anchor="middle" font-size="14" fill="#166534">Behavior Classification</text>

  <rect x="600" y="200" width="200" height="60" rx="14" ry="14" fill="#f5f3ff" stroke="#7c3aed" stroke-width="2"/>
  <text x="700" y="235" text-anchor="middle" font-size="14" fill="#5b21b6">Severity Weighting → Final Score</text>

  <!-- Arrows -->
  <line x1="300" y1="130" x2="350" y2="130" stroke="#94a3b8" stroke-width="2"/>
  <line x1="550" y1="130" x2="600" y2="130" stroke="#94a3b8" stroke-width="2"/>
  <line x1="800" y1="130" x2="850" y2="130" stroke="#94a3b8" stroke-width="2"/>
  <line x1="950" y1="160" x2="700" y2="200" stroke="#94a3b8" stroke-width="2"/>

</svg>
